<svg width="137" height="137" viewBox="0 0 137 137" fill="none" xmlns="http://www.w3.org/2000/svg">
<path d="M87.0521 107.031C88.1937 107.031 89.1927 106.603 90.049 105.747C90.9052 104.891 91.3333 103.892 91.3333 102.75C91.3333 101.608 90.9052 100.609 90.049 99.7531C89.1927 98.8969 88.1937 98.4688 87.0521 98.4688C85.9104 98.4688 84.9115 98.8969 84.0552 99.7531C83.199 100.609 82.7708 101.608 82.7708 102.75C82.7708 103.892 83.199 104.891 84.0552 105.747C84.9115 106.603 85.9104 107.031 87.0521 107.031ZM102.75 107.031C103.892 107.031 104.891 106.603 105.747 105.747C106.603 104.891 107.031 103.892 107.031 102.75C107.031 101.608 106.603 100.609 105.747 99.7531C104.891 98.8969 103.892 98.4688 102.75 98.4688C101.608 98.4688 100.609 98.8969 99.7531 99.7531C98.8969 100.609 98.4687 101.608 98.4687 102.75C98.4687 103.892 98.8969 104.891 99.7531 105.747C100.609 106.603 101.608 107.031 102.75 107.031ZM118.448 107.031C119.59 107.031 120.589 106.603 121.445 105.747C122.301 104.891 122.729 103.892 122.729 102.75C122.729 101.608 122.301 100.609 121.445 99.7531C120.589 98.8969 119.59 98.4688 118.448 98.4688C117.306 98.4688 116.307 98.8969 115.451 99.7531C114.595 100.609 114.167 101.608 114.167 102.75C114.167 103.892 114.595 104.891 115.451 105.747C116.307 106.603 117.306 107.031 118.448 107.031ZM28.5417 119.875C25.4021 119.875 22.7154 118.758 20.4815 116.524C18.2476 114.29 17.1288 111.602 17.125 108.458V28.5417C17.125 25.4021 18.2438 22.7154 20.4815 20.4815C22.7192 18.2476 25.4059 17.1288 28.5417 17.125H108.458C111.598 17.125 114.287 18.2438 116.524 20.4815C118.762 22.7192 119.879 25.4059 119.875 28.5417V57.0833C119.875 58.7007 119.327 60.0574 118.231 61.1534C117.135 62.2494 115.78 62.7955 114.167 62.7917C112.553 62.7879 111.198 62.2399 110.102 61.1477C109.006 60.0555 108.458 58.7007 108.458 57.0833V28.5417H28.5417V108.458H57.0833C58.7007 108.458 60.0574 109.006 61.1534 110.102C62.2494 111.198 62.7955 112.553 62.7917 114.167C62.7879 115.78 62.2399 117.137 61.1477 118.237C60.0555 119.337 58.7007 119.883 57.0833 119.875H28.5417ZM28.5417 102.75V108.458V28.5417V63.2198V62.7917V102.75ZM39.9583 91.3333C39.9583 92.9507 40.5063 94.3074 41.6023 95.4034C42.6983 96.4994 44.0531 97.0455 45.6667 97.0417H57.5115C59.1288 97.0417 60.4855 96.4937 61.5815 95.3977C62.6775 94.3017 63.2236 92.9469 63.2198 91.3333C63.216 89.7198 62.6699 88.365 61.5815 87.269C60.4931 86.173 59.1364 85.625 57.5115 85.625H45.6667C44.0493 85.625 42.6945 86.173 41.6023 87.269C40.5101 88.365 39.9621 89.7198 39.9583 91.3333ZM39.9583 68.5C39.9583 70.1174 40.5063 71.474 41.6023 72.57C42.6983 73.666 44.0531 74.2121 45.6667 74.2083H74.2083C75.8257 74.2083 77.1824 73.6603 78.2784 72.5643C79.3744 71.4683 79.9205 70.1136 79.9167 68.5C79.9129 66.8864 79.3649 65.5317 78.2727 64.4357C77.1805 63.3397 75.8257 62.7917 74.2083 62.7917H45.6667C44.0493 62.7917 42.6945 63.3397 41.6023 64.4357C40.5101 65.5317 39.9621 66.8864 39.9583 68.5ZM39.9583 45.6667C39.9583 47.284 40.5063 48.6407 41.6023 49.7367C42.6983 50.8327 44.0531 51.3788 45.6667 51.375H91.3333C92.9507 51.375 94.3074 50.827 95.4034 49.731C96.4994 48.635 97.0455 47.2802 97.0417 45.6667C97.0379 44.0531 96.4899 42.6983 95.3977 41.6023C94.3055 40.5063 92.9507 39.9583 91.3333 39.9583H45.6667C44.0493 39.9583 42.6945 40.5063 41.6023 41.6023C40.5101 42.6983 39.9621 44.0531 39.9583 45.6667ZM102.75 131.292C94.8535 131.292 88.1233 128.508 82.5596 122.94C76.9959 117.373 74.2121 110.643 74.2083 102.75C74.2045 94.8573 76.9883 88.1272 82.5596 82.5596C88.131 76.9921 94.8611 74.2083 102.75 74.2083C110.639 74.2083 117.371 76.9921 122.946 82.5596C128.521 88.1272 131.303 94.8573 131.292 102.75C131.28 110.643 128.496 117.375 122.94 122.946C117.384 128.517 110.654 131.299 102.75 131.292Z" fill="#EF4136"/>
</svg>
