<svg width="162" height="161" viewBox="0 0 162 161" fill="none" xmlns="http://www.w3.org/2000/svg">
<path d="M141.75 33.5417C134.257 31.1938 126.022 30.1875 118.125 30.1875C104.963 30.1875 90.7875 32.8708 81 40.25C71.2125 32.8708 57.0375 30.1875 43.875 30.1875C30.7125 30.1875 16.5375 32.8708 6.75 40.25V138.527C6.75 140.204 8.4375 141.881 10.125 141.881C10.8 141.881 11.1375 141.546 11.8125 141.546C20.925 137.185 34.0875 134.167 43.875 134.167C57.0375 134.167 71.2125 136.85 81 144.229C90.1125 138.527 106.65 134.167 118.125 134.167C129.262 134.167 140.738 136.179 150.188 141.21C150.863 141.546 151.2 141.546 151.875 141.546C153.562 141.546 155.25 139.869 155.25 138.192V40.25C151.2 37.2312 146.812 35.2188 141.75 33.5417ZM141.75 124.104C134.325 121.756 126.225 120.75 118.125 120.75C106.65 120.75 90.1125 125.11 81 130.812V53.6667C90.1125 47.9646 106.65 43.6042 118.125 43.6042C126.225 43.6042 134.325 44.6104 141.75 46.9583V124.104Z" fill="url(#paint0_linear_1129_1408)"/>
<path d="M118.125 70.4375C124.065 70.4375 129.803 71.0413 135 72.1817V61.985C129.667 60.9787 123.93 60.375 118.125 60.375C106.65 60.375 96.255 62.3204 87.75 65.9429V77.0787C95.3775 72.7854 105.975 70.4375 118.125 70.4375ZM87.75 83.7871V94.9229C95.3775 90.6296 105.975 88.2817 118.125 88.2817C124.065 88.2817 129.803 88.8854 135 90.0258V79.8292C129.667 78.8229 123.93 78.2192 118.125 78.2192C106.65 78.2192 96.255 80.2317 87.75 83.7871ZM118.125 96.1304C106.65 96.1304 96.255 98.0758 87.75 101.698V112.834C95.3775 108.541 105.975 106.193 118.125 106.193C124.065 106.193 129.803 106.797 135 107.937V97.7404C129.667 96.6671 123.93 96.1304 118.125 96.1304Z" fill="url(#paint1_linear_1129_1408)"/>
<defs>
<linearGradient id="paint0_linear_1129_1408" x1="81" y1="30.1875" x2="81" y2="144.229" gradientUnits="userSpaceOnUse">
<stop stop-color="#F4756B"/>
<stop offset="1" stop-color="#E33629"/>
</linearGradient>
<linearGradient id="paint1_linear_1129_1408" x1="111.375" y1="60.375" x2="111.375" y2="112.834" gradientUnits="userSpaceOnUse">
<stop stop-color="#F4756B"/>
<stop offset="1" stop-color="#E33629"/>
</linearGradient>
</defs>
</svg>
