<svg width="85" height="85" viewBox="0 0 85 85" fill="none" xmlns="http://www.w3.org/2000/svg">
<g clip-path="url(#clip0_1129_1749)">
<path fill-rule="evenodd" clip-rule="evenodd" d="M8.74272 2.67143C10.449 0.963025 12.7639 0.00213047 15.1784 4.84192e-06H51.607C52.0059 -0.000707623 52.4011 0.0772133 52.7699 0.229313C53.1387 0.381413 53.4739 0.604708 53.7563 0.886433L78.042 25.1721C78.3237 25.4546 78.547 25.7898 78.6991 26.1586C78.8512 26.5274 78.9291 26.9225 78.9284 27.3214V75.8929C78.9284 78.3082 77.9689 80.6247 76.261 82.3326C74.5531 84.0405 72.2366 85 69.8213 85H15.1784C12.7631 85 10.4466 84.0405 8.73871 82.3326C7.03079 80.6247 6.07129 78.3082 6.07129 75.8929V9.10715C6.07129 6.69072 7.03058 4.37143 8.74272 2.67143ZM30.0838 23.9821C30.9002 23.9821 31.7087 23.8213 32.463 23.5089C33.2173 23.1965 33.9027 22.7385 34.48 22.1612C35.0573 21.5839 35.5152 20.8985 35.8277 20.1442C36.1401 19.3899 36.3009 18.5815 36.3009 17.765C36.3009 16.9486 36.1401 16.1401 35.8277 15.3858C35.5152 14.6315 35.0573 13.9461 34.48 13.3688C33.9027 12.7915 33.2173 12.3336 32.463 12.0211C31.7087 11.7087 30.9002 11.5479 30.0838 11.5479C28.4349 11.5479 26.8535 12.2029 25.6876 13.3688C24.5217 14.5348 23.8666 16.1161 23.8666 17.765C23.8666 19.4139 24.5217 20.9952 25.6876 22.1612C26.8535 23.3271 28.4349 23.9821 30.0838 23.9821ZM17.4613 51.6072C17.4613 49.5125 19.1552 47.8125 21.2499 47.8125H63.7499C64.7192 47.8658 65.6315 48.288 66.2995 48.9926C66.9674 49.6971 67.3404 50.6306 67.342 51.6014C67.3435 52.5723 66.9735 53.5069 66.3078 54.2136C65.6421 54.9203 64.7312 55.3454 63.762 55.4018H21.262C20.255 55.4018 19.2892 55.0022 18.5766 54.2907C17.864 53.5793 17.4629 52.6141 17.4613 51.6072ZM17.4613 69.8214C17.4613 67.7268 19.1552 66.0268 21.2499 66.0268H45.5356C46.505 66.0801 47.4172 66.5023 48.0852 67.2068C48.7531 67.9114 49.1261 68.8448 49.1277 69.8157C49.1293 70.7866 48.7592 71.7212 48.0935 72.4279C47.4278 73.1346 46.5169 73.5597 45.5477 73.6161H21.262C20.255 73.6161 19.2892 73.2165 18.5766 72.505C17.864 71.7936 17.4629 70.8284 17.4613 69.8214ZM30.0899 28.135C25.8399 28.135 21.9602 29.7318 19.0277 32.3607C17.2852 33.9211 18.6452 36.4286 20.9827 36.4286H39.1849C41.5284 36.4286 42.8884 33.9211 41.1459 32.3607C38.1074 29.6336 34.1727 28.1282 30.0899 28.135Z" fill="#E33629"/>
</g>
<defs>
<clipPath id="clip0_1129_1749">
<rect width="85" height="85" fill="white"/>
</clipPath>
</defs>
</svg>
