<svg width="85" height="84" viewBox="0 0 85 84" fill="none" xmlns="http://www.w3.org/2000/svg">
<g clip-path="url(#clip0_1129_1845)">
<path fill-rule="evenodd" clip-rule="evenodd" d="M8.74272 2.64C10.449 0.951695 12.7639 0.00210541 15.1784 4.78496e-06H51.607C52.0059 -0.000699298 52.4011 0.0763049 52.7699 0.226615C53.1387 0.376925 53.4739 0.597594 53.7563 0.876005L78.042 24.876C78.3237 25.1551 78.547 25.4864 78.6991 25.8508C78.8512 26.2153 78.9291 26.6058 78.9284 27V75C78.9284 77.387 77.9689 79.6761 76.261 81.364C74.5531 83.0518 72.2366 84 69.8213 84H15.1784C12.7631 84 10.4466 83.0518 8.73871 81.364C7.03079 79.6761 6.07129 77.387 6.07129 75V9C6.07129 6.61201 7.03058 4.32 8.74272 2.64ZM30.0838 23.7C30.9002 23.7 31.7087 23.5411 32.463 23.2323C33.2173 22.9236 33.9027 22.471 34.48 21.9005C35.0573 21.3299 35.5152 20.6526 35.8277 19.9072C36.1401 19.1618 36.3009 18.3628 36.3009 17.556C36.3009 16.7492 36.1401 15.9502 35.8277 15.2048C35.5152 14.4594 35.0573 13.7821 34.48 13.2115C33.9027 12.641 33.2173 12.1885 32.463 11.8797C31.7087 11.5709 30.9002 11.412 30.0838 11.412C28.4349 11.412 26.8535 12.0593 25.6876 13.2115C24.5217 14.3638 23.8666 15.9265 23.8666 17.556C23.8666 19.1855 24.5217 20.7482 25.6876 21.9005C26.8535 23.0527 28.4349 23.7 30.0838 23.7ZM17.4613 51C17.4613 48.93 19.1552 47.25 21.2499 47.25H63.7499C64.7192 47.3027 65.6315 47.7199 66.2995 48.4162C66.9674 49.1124 67.3404 50.0349 67.342 50.9943C67.3435 51.9538 66.9735 52.8774 66.3078 53.5758C65.6421 54.2741 64.7312 54.6943 63.762 54.75H21.262C20.255 54.75 19.2892 54.3551 18.5766 53.652C17.864 52.9489 17.4629 51.9951 17.4613 51ZM17.4613 69C17.4613 66.93 19.1552 65.25 21.2499 65.25H45.5356C46.505 65.3027 47.4172 65.7199 48.0852 66.4162C48.7531 67.1124 49.1261 68.0349 49.1277 68.9943C49.1293 69.9538 48.7592 70.8774 48.0935 71.5758C47.4278 72.2741 46.5169 72.6943 45.5477 72.75H21.262C20.255 72.75 19.2892 72.3551 18.5766 71.652C17.864 70.9489 17.4629 69.9951 17.4613 69ZM30.0899 27.804C25.8399 27.804 21.9602 29.382 19.0277 31.98C17.2852 33.522 18.6452 36 20.9827 36H39.1849C41.5284 36 42.8884 33.522 41.1459 31.98C38.1074 29.285 34.1727 27.7973 30.0899 27.804Z" fill="#5932EA"/>
</g>
<defs>
<clipPath id="clip0_1129_1845">
<rect width="85" height="84" fill="white"/>
</clipPath>
</defs>
</svg>
