<svg width="28" height="28" viewBox="0 0 28 28" fill="none" xmlns="http://www.w3.org/2000/svg">
<path opacity="0.5" d="M25.6663 11.6666H2.33301V22.1666C2.33301 23.0949 2.70176 23.9851 3.35813 24.6415C4.01451 25.2979 4.90475 25.6666 5.83301 25.6666H22.1663C23.0946 25.6666 23.9848 25.2979 24.6412 24.6415C25.2976 23.9851 25.6663 23.0949 25.6663 22.1666V11.6666ZM8.16634 9.33331C7.85692 9.33331 7.56018 9.2104 7.34138 8.9916C7.12259 8.77281 6.99967 8.47607 6.99967 8.16665V3.49998C6.99967 3.19056 7.12259 2.89381 7.34138 2.67502C7.56018 2.45623 7.85692 2.33331 8.16634 2.33331C8.47576 2.33331 8.77251 2.45623 8.9913 2.67502C9.21009 2.89381 9.33301 3.19056 9.33301 3.49998V8.16665C9.33301 8.47607 9.21009 8.77281 8.9913 8.9916C8.77251 9.2104 8.47576 9.33331 8.16634 9.33331ZM19.833 9.33331C19.5236 9.33331 19.2268 9.2104 19.0081 8.9916C18.7893 8.77281 18.6663 8.47607 18.6663 8.16665V3.49998C18.6663 3.19056 18.7893 2.89381 19.0081 2.67502C19.2268 2.45623 19.5236 2.33331 19.833 2.33331C20.1424 2.33331 20.4392 2.45623 20.658 2.67502C20.8768 2.89381 20.9997 3.19056 20.9997 3.49998V8.16665C20.9997 8.47607 20.8768 8.77281 20.658 8.9916C20.4392 9.2104 20.1424 9.33331 19.833 9.33331Z" fill="black"/>
<path d="M22.1663 4.66669H20.9997V8.16669C20.9997 8.47611 20.8768 8.77285 20.658 8.99164C20.4392 9.21044 20.1424 9.33335 19.833 9.33335C19.5236 9.33335 19.2268 9.21044 19.0081 8.99164C18.7893 8.77285 18.6663 8.47611 18.6663 8.16669V4.66669H9.33301V8.16669C9.33301 8.47611 9.21009 8.77285 8.9913 8.99164C8.77251 9.21044 8.47576 9.33335 8.16634 9.33335C7.85692 9.33335 7.56018 9.21044 7.34138 8.99164C7.12259 8.77285 6.99967 8.47611 6.99967 8.16669V4.66669H5.83301C4.90475 4.66669 4.01451 5.03544 3.35813 5.69181C2.70176 6.34819 2.33301 7.23843 2.33301 8.16669V11.6667H25.6663V8.16669C25.6663 7.23843 25.2976 6.34819 24.6412 5.69181C23.9848 5.03544 23.0946 4.66669 22.1663 4.66669Z" fill="black"/>
</svg>
