<svg width="142" height="142" viewBox="0 0 142 142" fill="none" xmlns="http://www.w3.org/2000/svg">
<path d="M46.871 106.25C40.714 106.25 35.7218 111.242 35.7218 117.399C35.7218 123.556 40.714 128.548 46.871 128.548C53.0281 128.548 58.0202 123.556 58.0202 117.399C57.9925 111.242 53.0281 106.25 46.871 106.25Z" fill="#1B3954"/>
<path d="M108.053 106.25C101.896 106.25 96.9039 111.242 96.9039 117.399C96.9039 123.556 101.896 128.548 108.053 128.548C114.21 128.548 119.202 123.556 119.202 117.399C119.202 111.242 114.21 106.25 108.053 106.25Z" fill="#1B3954"/>
<path d="M28.5664 73.7453C30.1195 73.2461 31.7558 72.9965 33.4199 72.9965H44.7355L47.6476 66.9781C45.7062 67.5605 43.6816 67.8656 41.5461 67.8656C37.4691 67.8656 33.6418 66.7285 30.4246 64.7316C24.7945 61.2648 20.884 55.2742 20.3293 48.3406C20.2738 47.7582 20.2461 47.1758 20.2461 46.5656C20.2461 43.1266 21.0504 39.8816 22.5203 36.9973C26.0148 30.0359 33.2258 25.2379 41.5461 25.2379C43.4875 25.2379 45.3734 25.4875 47.1761 25.9867C53.2777 27.6508 58.2976 31.9773 60.9047 37.6352C61.5148 38.9109 61.9586 40.2977 62.2914 41.6844C64.5101 40.2977 67.0617 39.5766 69.7242 39.5766H73.8843C72.1371 31.4504 67.4222 24.4336 60.9047 19.7465C56.9664 16.8898 52.4179 14.893 47.4535 14.0055C45.5398 13.6449 43.5707 13.4785 41.5461 13.4785C39.3551 13.4785 37.2472 13.7004 35.1672 14.0887C31.534 14.782 28.0949 16.0855 25.0164 17.8883C17.8332 22.0484 12.3418 28.8434 9.90115 36.9695C8.98591 39.9926 8.48669 43.2098 8.48669 46.5379C8.48669 47.1203 8.51443 47.7305 8.54216 48.3129C9.15232 59.8781 15.6976 69.8625 25.1828 75.2707C26.2367 74.6605 27.3738 74.1336 28.5664 73.7453Z" fill="#16ADE1"/>
<path d="M21.4109 111.492C21.4109 114.765 24.0457 117.399 27.3183 117.399H31.8667C31.8667 109.107 38.6062 102.367 46.871 102.367C55.1636 102.367 61.9031 109.107 61.9031 117.399H93.0488C93.0488 109.107 99.7882 102.367 108.053 102.367C116.346 102.367 123.085 109.107 123.085 117.399H127.634C130.878 117.399 133.541 114.765 133.541 111.492V99.6494H21.4109V111.492Z" fill="#16ADE1"/>
<path d="M123.362 43.459H69.7242C67.1449 43.459 64.7043 44.4297 62.8461 46.1492C61.9308 47.009 61.1543 48.0352 60.5718 49.2L53.2222 64.3707L47.1484 76.8789H33.3922C32.1164 76.8789 30.8961 77.073 29.7312 77.4613C24.8777 79.0145 21.3832 83.5352 21.3832 88.8879V95.766H133.486V53.6098C133.513 48.0074 128.965 43.459 123.362 43.459ZM86.6422 76.8789H62.5965L67.1449 67.5047L72.0539 57.3539H86.6422V76.8789ZM119.618 76.8789H100.398V57.3539H119.646V76.8789H119.618Z" fill="#1B3954"/>
<path d="M41.9066 62.291C42.7941 62.291 43.4875 61.5977 43.4875 60.7379V58.5469C48.1191 58.1031 51.2254 55.4406 51.2254 51.4469C51.2254 50.2543 51.0035 49.2004 50.532 48.3129C49.4781 46.2883 47.1484 44.9293 43.3488 43.9586V36.9695C44.5969 37.2469 45.8172 37.8016 47.0929 38.5781C47.4535 38.8 47.814 38.9109 48.1746 38.9109C49.3117 38.9109 50.2269 38.0234 50.2269 36.9141C50.2269 36.0543 49.7277 35.4996 49.1453 35.1668C47.4812 34.1129 45.6508 33.4195 43.5152 33.1699V32.3656C43.5152 31.5059 42.8218 30.8125 41.9343 30.8125C41.0746 30.8125 40.3258 31.5059 40.3258 32.3656V33.1422C38.8836 33.2531 37.6078 33.6137 36.5261 34.1406C35.1672 34.8063 34.1133 35.777 33.4476 36.9973C32.9484 37.9125 32.6988 38.9387 32.6988 40.1035C32.6988 41.7676 33.1148 43.0988 33.9469 44.1527C35.1672 45.7336 37.3304 46.7598 40.4922 47.5918V54.7473C38.4953 54.3867 36.8312 53.5547 35.1117 52.3066C34.7789 52.057 34.3351 51.9184 33.9191 51.9184C32.782 51.9184 31.9222 52.7781 31.9222 53.9152C31.9222 54.6641 32.2828 55.2465 32.8929 55.6625C35.1117 57.2156 37.6355 58.2141 40.3535 58.4914V60.7379C40.3258 61.5977 41.0469 62.291 41.9066 62.291ZM43.3488 48.2574C43.4043 48.2852 43.4597 48.2852 43.5152 48.3129C46.1777 49.1727 46.9543 50.1434 46.9543 51.7242C46.9543 53.4715 45.6785 54.6363 43.3488 54.8859V48.2574ZM38.9945 42.6551C37.3859 41.9063 36.9699 41.0465 36.9699 39.8262C36.9699 38.2176 38.1347 36.9973 40.4644 36.7754V43.2098C39.882 43.0156 39.4105 42.8215 38.9945 42.6551Z" fill="#1B3954"/>
</svg>
