<svg width="140" height="141" viewBox="0 0 140 141" fill="none" xmlns="http://www.w3.org/2000/svg">
<path fill-rule="evenodd" clip-rule="evenodd" d="M104.878 26.4375H105C109.641 26.4375 114.092 28.2944 117.374 31.5997C120.656 34.9051 122.5 39.3881 122.5 44.0625V96.9375C122.501 100.846 121.212 104.643 118.836 107.733C116.46 110.823 113.132 113.03 109.375 114.007V61.6875C109.375 55.8444 107.07 50.2407 102.968 46.1091C98.8656 41.9774 93.3016 39.6562 87.5 39.6562H35.5513C36.5214 35.8722 38.7128 32.5202 41.7808 30.1273C44.8489 27.7345 48.6196 26.4365 52.5 26.4375H52.6225C53.1606 21.5905 55.4535 17.1133 59.0629 13.8618C62.6723 10.6103 67.3449 8.81265 72.1875 8.8125H85.3125C90.1551 8.81265 94.8277 10.6103 98.4371 13.8618C102.047 17.1133 104.339 21.5905 104.878 26.4375ZM91.875 35.25V28.6406C91.875 26.8877 91.1836 25.2066 89.9529 23.9671C88.7222 22.7276 87.053 22.0312 85.3125 22.0312H72.1875C70.447 22.0312 68.7778 22.7276 67.5471 23.9671C66.3164 25.2066 65.625 26.8877 65.625 28.6406V35.25H91.875Z" fill="url(#paint0_linear_1129_1428)"/>
<path fill-rule="evenodd" clip-rule="evenodd" d="M26.25 52.875C23.9294 52.875 21.7038 53.8035 20.0628 55.4561C18.4219 57.1088 17.5 59.3503 17.5 61.6875V123.375C17.5 125.712 18.4219 127.954 20.0628 129.606C21.7038 131.259 23.9294 132.188 26.25 132.188H87.5C89.8206 132.188 92.0462 131.259 93.6872 129.606C95.3281 127.954 96.25 125.712 96.25 123.375V61.6875C96.25 59.3503 95.3281 57.1088 93.6872 55.4561C92.0462 53.8035 89.8206 52.875 87.5 52.875H26.25ZM41.5625 74.9062C39.822 74.9062 38.1528 75.6026 36.9221 76.8421C35.6914 78.0816 35 79.7627 35 81.5156C35 83.2685 35.6914 84.9497 36.9221 86.1892C38.1528 87.4287 39.822 88.125 41.5625 88.125H72.1875C73.928 88.125 75.5972 87.4287 76.8279 86.1892C78.0586 84.9497 78.75 83.2685 78.75 81.5156C78.75 79.7627 78.0586 78.0816 76.8279 76.8421C75.5972 75.6026 73.928 74.9062 72.1875 74.9062H41.5625ZM35 103.547C35 101.794 35.6914 100.113 36.9221 98.8733C38.1528 97.6338 39.822 96.9375 41.5625 96.9375H72.1875C73.928 96.9375 75.5972 97.6338 76.8279 98.8733C78.0586 100.113 78.75 101.794 78.75 103.547C78.75 105.3 78.0586 106.981 76.8279 108.22C75.5972 109.46 73.928 110.156 72.1875 110.156H41.5625C39.822 110.156 38.1528 109.46 36.9221 108.22C35.6914 106.981 35 105.3 35 103.547Z" fill="url(#paint1_linear_1129_1428)"/>
<defs>
<linearGradient id="paint0_linear_1129_1428" x1="79.0256" y1="8.8125" x2="79.0256" y2="114.007" gradientUnits="userSpaceOnUse">
<stop stop-color="#AB95FF"/>
<stop offset="1" stop-color="#5932EA"/>
</linearGradient>
<linearGradient id="paint1_linear_1129_1428" x1="56.875" y1="52.875" x2="56.875" y2="132.188" gradientUnits="userSpaceOnUse">
<stop stop-color="#AB95FF"/>
<stop offset="1" stop-color="#5932EA"/>
</linearGradient>
</defs>
</svg>
