<svg width="115" height="114" viewBox="0 0 115 114" fill="none" xmlns="http://www.w3.org/2000/svg">
<g clip-path="url(#clip0_1119_672)">
<path d="M65.2318 82.1462V74.8681C65.8251 75.1278 66.3414 75.534 66.7312 76.0479C67.121 76.5619 67.3714 77.1663 67.4584 77.8036L72.1807 77.2941C71.9536 75.625 71.1698 74.0792 69.9541 72.903C68.66 71.7474 67.0171 71.048 65.2807 70.9136V69.1426H62.5893V70.9621C60.6395 71.1114 58.816 71.9765 57.4754 73.3882C56.2056 74.7722 55.5221 76.588 55.5669 78.4586C55.5131 80.2853 56.111 82.0722 57.2552 83.5048C58.6663 85.0622 60.53 86.1472 62.5893 86.6101V94.3007C61.8654 93.9397 61.2432 93.4062 60.7786 92.748C60.235 92.0301 59.859 91.2015 59.6776 90.322L54.7839 90.8314C54.9818 92.9089 55.8384 94.8708 57.2307 96.4356C58.6335 97.8164 60.4749 98.6736 62.4424 98.8617V102.21H65.1339V98.4735C67.2916 98.2599 69.2947 97.2669 70.7616 95.6835C72.1208 94.1326 72.8453 92.1334 72.7924 90.0794C72.8632 88.3217 72.2896 86.598 71.1776 85.2273C69.5317 83.6602 67.469 82.5913 65.2318 82.1462ZM62.5648 81.2728C61.8477 80.9919 61.2216 80.5221 60.7541 79.9142C60.3719 79.3832 60.1666 78.7471 60.1669 78.0947C60.1651 77.3932 60.3973 76.7108 60.8276 76.1539C61.261 75.5706 61.8689 75.1376 62.5648 74.9166V81.2728ZM67.4584 93.1847C66.8814 93.8595 66.0855 94.3141 65.2073 94.4705V87.3137C66.1391 87.5202 66.9897 87.9924 67.6541 88.6723C68.1406 89.2689 68.4004 90.0158 68.3882 90.7829C68.3803 91.6599 68.0694 92.5076 67.5073 93.1847H67.4584Z" fill="#395BA6"/>
<path d="M91.3882 89.1571C93.4152 89.1571 95.0584 87.5278 95.0584 85.518C95.0584 83.5082 93.4152 81.8789 91.3882 81.8789C89.3612 81.8789 87.718 83.5082 87.718 85.518C87.718 87.5278 89.3612 89.1571 91.3882 89.1571Z" fill="#395BA6"/>
<path d="M36.335 89.1571C38.362 89.1571 40.0052 87.5278 40.0052 85.518C40.0052 83.5082 38.362 81.8789 36.335 81.8789C34.308 81.8789 32.6648 83.5082 32.6648 85.518C32.6648 87.5278 34.308 89.1571 36.335 89.1571Z" fill="#395BA6"/>
<path d="M18.0574 52.1602H90.0425C90.4567 49.7557 90.6695 47.3214 90.6786 44.8821C90.665 37.8537 88.9895 30.9263 85.7867 24.6563C82.5838 18.3862 77.9429 12.9481 72.2364 8.77861C66.5299 4.60909 59.9169 1.82432 52.9284 0.647893C45.9398 -0.528538 38.7704 -0.0638548 31.9958 2.00463C25.2212 4.07312 19.0301 7.68778 13.9196 12.5584C8.80917 17.429 4.9217 23.4199 2.56934 30.05C0.21698 36.6801 -0.534717 43.7648 0.374598 50.7351C1.28391 57.7054 3.82891 64.3673 7.80524 70.1857V62.3253C7.8117 59.6314 8.89391 57.0495 10.8152 55.1446C12.7364 53.2396 15.3403 52.1666 18.0574 52.1602ZM80.6467 42.456H85.7606V47.3081H80.6467V42.456ZM72.6946 14.3866L76.1446 17.8074L72.5233 21.3979L69.0733 17.9772L72.6946 14.3866ZM42.8191 4.85227H47.7127V9.92271H42.8191V4.85227ZM45.2659 14.3381L48.1531 38.453L61.2435 29.0885L47.8595 47.5022L45.2659 44.8821H41.5957L45.2659 14.3381ZM18.351 14.6292L21.8499 18.1955L18.351 21.6405L14.7542 18.1955L18.351 14.6292ZM4.89354 42.456H10.0074V47.3081H4.89354V42.456Z" fill="#395BA6"/>
<path d="M109.666 57.0117H18.0574C16.6428 57.0117 15.286 57.5689 14.2857 58.5608C13.2854 59.5526 12.7234 60.8978 12.7234 62.3005V108.711C12.7234 110.113 13.2854 111.459 14.2857 112.451C15.286 113.442 16.6428 114 18.0574 114H109.666C111.081 114 112.437 113.442 113.438 112.451C114.438 111.459 115 110.113 115 108.711V62.3005C114.994 60.8998 114.43 59.5583 113.431 58.5678C112.432 57.5774 111.079 57.0181 109.666 57.0117ZM108.076 96.5563C108.076 97.129 107.846 97.6782 107.438 98.0831C107.029 98.488 106.475 98.7155 105.898 98.7155C104.217 98.7155 102.605 99.3775 101.417 100.556C100.228 101.734 99.5606 103.332 99.5606 104.999C99.5606 105.572 99.3312 106.121 98.9228 106.526C98.5144 106.931 97.9605 107.158 97.383 107.158H30.3159C29.7384 107.158 29.1845 106.931 28.7761 106.526C28.3677 106.121 28.1383 105.572 28.1383 104.999C28.1383 103.332 27.4706 101.734 26.2822 100.556C25.0937 99.3775 23.4818 98.7155 21.801 98.7155C21.5151 98.7155 21.2319 98.6596 20.9677 98.5511C20.7035 98.4426 20.4634 98.2836 20.2612 98.0831C20.059 97.8826 19.8986 97.6445 19.7892 97.3826C19.6797 97.1206 19.6234 96.8398 19.6234 96.5563V74.4793C19.6234 74.1957 19.6797 73.9149 19.7892 73.653C19.8986 73.391 20.059 73.153 20.2612 72.9525C20.4634 72.752 20.7035 72.5929 20.9677 72.4844C21.2319 72.3759 21.5151 72.3201 21.801 72.3201C23.4818 72.3201 25.0937 71.6581 26.2822 70.4797C27.4706 69.3013 28.1383 67.7031 28.1383 66.0366C28.1383 65.7531 28.1946 65.4723 28.304 65.2103C28.4135 64.9484 28.5739 64.7103 28.7761 64.5098C28.9783 64.3093 29.2184 64.1503 29.4826 64.0418C29.7468 63.9333 30.03 63.8774 30.3159 63.8774H97.383C97.6689 63.8774 97.9521 63.9333 98.2163 64.0418C98.4805 64.1503 98.7206 64.3093 98.9228 64.5098C99.125 64.7103 99.2854 64.9484 99.3949 65.2103C99.5043 65.4723 99.5606 65.7531 99.5606 66.0366C99.5606 67.7031 100.228 69.3013 101.417 70.4797C102.605 71.6581 104.217 72.3201 105.898 72.3201C106.475 72.3201 107.029 72.5476 107.438 72.9525C107.846 73.3574 108.076 73.9066 108.076 74.4793V96.5563Z" fill="#395BA6"/>
</g>
<defs>
<clipPath id="clip0_1119_672">
<rect width="115" height="114" fill="white"/>
</clipPath>
</defs>
</svg>
