<svg width="104" height="108" viewBox="0 0 104 108" fill="none" xmlns="http://www.w3.org/2000/svg">
<g clip-path="url(#clip0_1119_664)">
<path d="M27.8571 15.1011C25.477 17.531 24.1434 20.8008 24.1434 24.2066C24.1434 27.6125 25.477 30.8822 27.8571 33.3121V42.8273H0V5.58594H27.8571V15.1011Z" fill="#395BA6"/>
<path d="M46.4286 24.2068C46.4286 22.3654 45.884 20.5654 44.8637 19.0343C43.8434 17.5032 42.3931 16.3099 40.6964 15.6052C38.9996 14.9005 37.1326 14.7161 35.3313 15.0754C33.5301 15.4346 31.8755 16.3214 30.5769 17.6234C29.2783 18.9255 28.3939 20.5844 28.0356 22.3905C27.6773 24.1965 27.8612 26.0685 28.564 27.7698C29.2668 29.471 30.457 30.9251 31.984 31.9481C33.5111 32.9711 35.3064 33.5172 37.1429 33.5172C39.6056 33.5172 41.9675 32.5363 43.7089 30.7902C45.4503 29.0442 46.4286 26.6761 46.4286 24.2068ZM35.2858 24.2068V18.6206H39V22.3448H40.8572V26.0689H37.1429C36.6504 26.0689 36.178 25.8727 35.8297 25.5235C35.4814 25.1743 35.2858 24.7007 35.2858 24.2068Z" fill="#395BA6"/>
<path d="M42.7143 12.457V5.58594H31.5714V12.457C33.3076 11.6114 35.2126 11.172 37.1428 11.172C39.073 11.172 40.9781 11.6114 42.7143 12.457Z" fill="#395BA6"/>
<path d="M104 108H58.6486L44.3393 83.0484C43.8095 82.215 43.6316 81.2048 43.8447 80.2399C44.0578 79.275 44.6445 78.4345 45.4756 77.9033C46.3068 77.3721 47.3144 77.1937 48.2767 77.4073C49.2391 77.621 50.0774 78.2092 50.6072 79.0426C50.6722 79.1474 50.7325 79.2521 50.7882 79.3615L58.2168 91.7443L61.4297 89.8822L40.0725 53.2925C39.5778 52.4369 39.4424 51.4193 39.6959 50.4636C39.9495 49.5079 40.5714 48.6923 41.4247 48.1963C42.2781 47.7003 43.293 47.5645 44.2462 47.8187C45.1994 48.073 46.0128 48.6965 46.5075 49.5521V49.5684L69.7218 89.8822L72.9347 88.0201L67.3632 78.3374C67.116 77.9143 66.9558 77.4459 66.892 76.9598C66.8282 76.4737 66.8622 75.9798 66.9918 75.507C67.2513 74.5583 67.8714 73.7494 68.7189 73.2539C69.1409 73.0061 69.608 72.8454 70.0928 72.7815C70.5776 72.7175 71.0703 72.7515 71.5418 72.8815C72.488 73.1417 73.2947 73.7634 73.7889 74.6132L79.3604 84.296L82.5732 82.4339L77.9304 74.3711C77.6865 73.9469 77.5283 73.4786 77.4649 72.9931C77.4016 72.5075 77.4342 72.0142 77.5609 71.5413C77.6877 71.0684 77.9061 70.6252 78.2037 70.2369C78.5013 69.8486 78.8722 69.5229 79.2954 69.2784C79.7185 69.0339 80.1855 68.8753 80.6698 68.8117C81.1541 68.7482 81.6461 68.7809 82.1177 68.9079C83.0703 69.1646 83.8821 69.7902 84.3746 70.647L89.0175 78.7098L92.2304 76.8477L89.4446 72.0063C89.1975 71.5833 89.0373 71.1149 88.9735 70.6288C88.9097 70.1427 88.9436 69.6487 89.0732 69.176C89.3327 68.2273 89.9528 67.4184 90.8004 66.9229C91.2223 66.675 91.6894 66.5144 92.1742 66.4504C92.659 66.3865 93.1517 66.4205 93.6232 66.5505C94.1197 66.6881 94.5828 66.9259 94.9844 67.2492C95.386 67.5726 95.7175 67.9748 95.9586 68.4311L103.981 79.7339L104 108Z" fill="#395BA6"/>
<path d="M104 37.2414C104 40.3138 99.97 40.9655 96.5714 40.9655H76.1429V44.6897H85.4286C86.4137 44.6897 87.3584 45.082 88.055 45.7804C88.7516 46.4788 89.1429 47.4261 89.1429 48.4138V52.1379C89.1429 53.1256 88.7516 54.0729 88.055 54.7713C87.3584 55.4697 86.4137 55.8621 85.4286 55.8621H69.3457L53.1329 43.2186C52.8118 42.9606 52.4114 42.8224 52 42.8276H46.4286V33.3124C48.3468 31.3336 49.5944 28.7991 49.9943 26.069H52V22.3448H49.9943C49.5944 19.6146 48.3468 17.0802 46.4286 15.1014V5.58621H50.1429C50.3918 5.58573 50.6381 5.53507 50.8672 5.43724L63.5329 0H92.8572C93.8423 0 94.787 0.392363 95.4836 1.09077C96.1801 1.78919 96.5714 2.73643 96.5714 3.72414C96.5714 4.71184 96.1801 5.65909 95.4836 6.3575C94.787 7.05591 93.8423 7.44828 92.8572 7.44828H83.5714V11.1724H96.5714C97.5565 11.1724 98.5013 11.5648 99.1978 12.2632C99.8944 12.9616 100.286 13.9088 100.286 14.8966C100.286 15.8843 99.8944 16.8315 99.1978 17.5299C98.5013 18.2283 97.5565 18.6207 96.5714 18.6207H83.5714V22.3448H100.286C101.271 22.3448 102.216 22.7372 102.912 23.4356C103.609 24.134 104 25.0813 104 26.069C104 27.0567 103.609 28.0039 102.912 28.7023C102.216 29.4007 101.271 29.7931 100.286 29.7931H83.5714V33.5172H100.286C101.271 33.5172 102.216 33.9096 102.912 34.608C103.609 35.3064 104 36.2537 104 37.2414Z" fill="#395BA6"/>
<path d="M42.7143 35.957V42.8281H31.5714V35.957C33.3076 36.8026 35.2126 37.242 37.1428 37.242C39.073 37.242 40.9781 36.8026 42.7143 35.957Z" fill="#395BA6"/>
</g>
<defs>
<clipPath id="clip0_1119_664">
<rect width="104" height="108" fill="white"/>
</clipPath>
</defs>
</svg>
