<svg width="114" height="114" viewBox="0 0 114 114" fill="none" xmlns="http://www.w3.org/2000/svg">
<mask id="mask0_1129_1433" style="mask-type:luminance" maskUnits="userSpaceOnUse" x="7" y="12" width="100" height="90">
<path d="M23.75 42.75H9.5V99.75H104.5V42.75H90.25" stroke="white" stroke-width="4" stroke-linecap="round" stroke-linejoin="round"/>
<path d="M90.25 14.25H23.75V53.4375L57 78.375L90.25 53.4375V14.25Z" fill="white"/>
<path d="M23.75 53.4375L57 78.375L90.25 53.4375M23.75 53.4375V14.25H90.25V53.4375M23.75 53.4375L9.5 42.75M90.25 53.4375L104.5 42.75" stroke="white" stroke-width="4" stroke-linecap="round" stroke-linejoin="round"/>
<path d="M45.125 45.125L57 57M57 57L68.875 45.125M57 57V30.875" stroke="black" stroke-width="4" stroke-linecap="round" stroke-linejoin="round"/>
</mask>
<g mask="url(#mask0_1129_1433)">
<path d="M0 0H114V114H0V0Z" fill="url(#paint0_linear_1129_1433)"/>
</g>
<defs>
<linearGradient id="paint0_linear_1129_1433" x1="57" y1="0" x2="57" y2="114" gradientUnits="userSpaceOnUse">
<stop stop-color="#7AED8C"/>
<stop offset="1" stop-color="#349D45"/>
</linearGradient>
</defs>
</svg>
