<svg width="115" height="115" viewBox="0 0 115 115" fill="none" xmlns="http://www.w3.org/2000/svg">
<path d="M82.776 97.0312L99.4271 80.5L94.3958 75.4687L82.776 86.849L78.1042 82.1771L73.0729 87.3281L82.776 97.0312ZM28.75 43.125H86.25V33.5417H28.75V43.125ZM86.25 110.208C79.6215 110.208 73.9722 107.872 69.3019 103.198C64.6316 98.5247 62.2949 92.8753 62.2917 86.25C62.2885 79.6247 64.6252 73.9753 69.3019 69.3019C73.9785 64.6284 79.6279 62.2917 86.25 62.2917C92.8721 62.2917 98.5231 64.6284 103.203 69.3019C107.883 73.9753 110.218 79.6247 110.208 86.25C110.199 92.8753 107.862 98.5262 103.198 103.203C98.5342 107.88 92.8849 110.215 86.25 110.208ZM14.375 105.417V23.9583C14.375 21.3229 15.3142 19.0676 17.1925 17.1925C19.0708 15.3174 21.3261 14.3782 23.9583 14.375H91.0417C93.6771 14.375 95.934 15.3142 97.8123 17.1925C99.6906 19.0708 100.628 21.3261 100.625 23.9583V55.9427C98.3889 54.8247 96.0522 54.0053 93.6148 53.4846C91.1774 52.9639 88.7225 52.7051 86.25 52.7083H28.75V62.2917H62.7708C61.4132 63.6493 60.1562 65.1267 58.9998 66.724C57.8434 68.3212 56.8244 70.0382 55.9427 71.875H28.75V81.4583H53.0677C52.908 82.2569 52.809 83.0364 52.7706 83.7967C52.7323 84.5569 52.7115 85.3747 52.7083 86.25C52.7083 89.6042 53.1683 92.8194 54.0883 95.8956C55.0083 98.9719 56.3851 101.906 58.2187 104.698L57.5 105.417L50.3125 98.2292L43.125 105.417L35.9375 98.2292L28.75 105.417L21.5625 98.2292L14.375 105.417Z" fill="url(#paint0_linear_1129_1612)"/>
<defs>
<linearGradient id="paint0_linear_1129_1612" x1="62.2917" y1="14.375" x2="62.2917" y2="110.208" gradientUnits="userSpaceOnUse">
<stop stop-color="#A5C1FF"/>
<stop offset="1" stop-color="#3D5A98"/>
</linearGradient>
</defs>
</svg>
