<svg width="102" height="102" viewBox="0 0 102 102" fill="none" xmlns="http://www.w3.org/2000/svg">
<path d="M44.3225 64.85L44.3006 64.799C43.8609 64.695 43.4236 64.5808 42.9892 64.4565L42.9564 64.4456C38.801 63.2511 34.9634 61.1469 31.7219 58.2855C28.1569 55.1407 25.4154 51.1715 23.7364 46.7241C22.0574 42.2767 21.4918 37.486 22.089 32.7699C22.6862 28.0537 24.428 23.5553 27.1626 19.6667C29.8972 15.7782 33.5415 12.6177 37.7778 10.4607C42.0141 8.30371 46.7137 7.2158 51.4669 7.29181C56.2201 7.36783 60.8826 8.60545 65.0478 10.8968C69.2129 13.1881 72.7543 16.4636 75.3632 20.4376C77.972 24.4115 79.5691 28.9634 80.0152 33.6962C80.1573 35.2007 78.9224 36.4284 77.4106 36.4284C75.9024 36.4284 74.6967 35.2007 74.5218 33.6999C74.0402 29.559 72.4739 25.6187 69.9813 22.2772C67.4887 18.9357 64.1581 16.3115 60.3261 14.6699C56.4942 13.0283 52.2967 12.4274 48.1581 12.928C44.0195 13.4287 40.0864 15.0131 36.7565 17.521C33.4265 20.029 30.8177 23.3717 29.1937 27.2112C27.5697 31.0506 26.9882 35.2508 27.5079 39.387C28.0276 43.5233 29.63 47.449 32.1533 50.7674C34.6766 54.0858 38.0313 56.6793 41.8781 58.2855L42.0239 58.3475C42.7524 58.6462 43.5004 58.9097 44.2679 59.138C44.9126 57.5799 46.0779 56.2938 47.5649 55.4988C49.0519 54.7038 50.7686 54.4492 52.4223 54.7784C54.076 55.1076 55.5643 56.0002 56.6335 57.3041C57.7027 58.6079 58.2866 60.2422 58.2856 61.9284C58.2872 63.6028 57.712 65.2266 56.6569 66.5267C55.6017 67.8268 54.1309 68.7238 52.492 69.0667C50.8531 69.4096 49.1461 69.1776 47.6582 68.4096C46.1703 67.6416 44.9923 66.3845 44.3225 64.85ZM40.7306 69.4837C34.2593 67.471 28.5212 63.6026 24.2285 58.3584C21.5682 58.67 19.1149 59.9477 17.3346 61.949C15.5543 63.9502 14.571 66.5356 14.5713 69.2141V71.8187C14.5713 85.3629 29.9077 94.7141 50.9999 94.7141C72.092 94.7141 87.4284 84.8492 87.4284 71.8187V69.2141C87.4284 66.3157 86.277 63.5359 84.2275 61.4864C82.178 59.4369 79.3983 58.2855 76.4999 58.2855H63.2216C64.0809 61.1635 63.8966 64.2525 62.7012 67.0078C61.5058 69.7632 59.376 72.0081 56.6873 73.3468C53.9986 74.6855 50.9237 75.032 48.0045 74.3253C45.0853 73.6185 42.5093 71.9039 40.7306 69.4837ZM69.2141 36.4284C69.2141 30.9204 66.7734 25.9843 62.9084 22.6438C60.9691 20.9709 58.6988 19.7257 56.2457 18.9897C53.7926 18.2536 51.2118 18.0431 48.6719 18.372C46.1319 18.7009 43.6899 19.5618 41.5051 20.8984C39.3204 22.235 37.4422 24.0174 35.993 26.1291C34.5438 28.2408 33.5562 30.6344 33.0947 33.1537C32.6332 35.6729 32.7083 38.2612 33.3149 40.7494C33.9214 43.2377 35.046 45.5701 36.6151 47.5944C38.1841 49.6186 40.1625 51.2892 42.4209 52.497C44.768 50.3619 47.8269 49.1786 50.9999 49.1784C54.1741 49.1777 57.2344 50.361 59.5824 52.497C62.4928 50.9422 64.9261 48.6261 66.6225 45.7959C68.319 42.9658 69.2147 39.728 69.2141 36.4284Z" fill="url(#paint0_linear_1129_1443)"/>
<defs>
<linearGradient id="paint0_linear_1129_1443" x1="50.9999" y1="7.28809" x2="50.9999" y2="94.7141" gradientUnits="userSpaceOnUse">
<stop stop-color="#FC8D26"/>
<stop offset="1" stop-color="#EB7305"/>
</linearGradient>
</defs>
</svg>
