<svg width="115" height="115" viewBox="0 0 115 115" fill="none" xmlns="http://www.w3.org/2000/svg">
<g clip-path="url(#clip0_1119_214)">
<path d="M95.8334 92H88.1667C85.1167 92 82.1916 93.2116 80.035 95.3683C77.8783 97.5249 76.6667 100.45 76.6667 103.5C76.6667 106.55 77.8783 109.475 80.035 111.632C82.1916 113.788 85.1167 115 88.1667 115H95.8334C98.8833 115 101.808 113.788 103.965 111.632C106.122 109.475 107.333 106.55 107.333 103.5C107.333 100.45 106.122 97.5249 103.965 95.3683C101.808 93.2116 98.8833 92 95.8334 92Z" fill="#463C4B"/>
<path d="M57.5 92H49.8333C46.7833 92 43.8583 93.2116 41.7016 95.3683C39.5449 97.5249 38.3333 100.45 38.3333 103.5C38.3333 106.55 39.5449 109.475 41.7016 111.632C43.8583 113.788 46.7833 115 49.8333 115H57.5C60.55 115 63.475 113.788 65.6317 111.632C67.7884 109.475 69 106.55 69 103.5C69 100.45 67.7884 97.5249 65.6317 95.3683C63.475 93.2116 60.55 92 57.5 92Z" fill="#463C4B"/>
<path d="M23 92H15.3333C12.2833 92 9.35825 93.2116 7.20159 95.3683C5.04492 97.5249 3.83331 100.45 3.83331 103.5C3.83331 106.55 5.04492 109.475 7.20159 111.632C9.35825 113.788 12.2833 115 15.3333 115H23C26.05 115 28.975 113.788 31.1317 111.632C33.2884 109.475 34.5 106.55 34.5 103.5C34.5 100.45 33.2884 97.5249 31.1317 95.3683C28.975 93.2116 26.05 92 23 92Z" fill="#463C4B"/>
<path d="M7.66669 80.5V76.2258C7.66708 73.9946 8.18627 71.794 9.18325 69.7978L14.2744 59.6179C14.5929 58.9814 15.0823 58.4462 15.6879 58.0721C16.2934 57.698 16.9911 57.4999 17.7028 57.5H76.4007C77.6631 57.4998 78.9059 57.8114 80.0189 58.407C81.1319 59.0025 82.0807 59.8637 82.7809 60.9141L95.8334 80.5H7.66669Z" fill="#463C4B"/>
<path d="M111.167 103.5H3.83333C2.81667 103.5 1.84165 103.096 1.12276 102.377C0.403868 101.658 0 100.683 0 99.6667V80.5H107.333C109.367 80.5 111.317 81.3077 112.754 82.7455C114.192 84.1833 115 86.1333 115 88.1667V99.6667C115 100.683 114.596 101.658 113.877 102.377C113.158 103.096 112.183 103.5 111.167 103.5Z" fill="#1B3C75"/>
<path d="M72.8333 103.5H3.83333C2.81667 103.5 1.84165 103.096 1.12276 102.377C0.403868 101.658 0 100.683 0 99.6667V80.5H69C71.0333 80.5 72.9834 81.3077 74.4212 82.7455C75.8589 84.1833 76.6667 86.1333 76.6667 88.1667V99.6667C76.6667 100.683 76.2628 101.658 75.5439 102.377C74.825 103.096 73.85 103.5 72.8333 103.5Z" fill="#395BA6"/>
<path d="M107.333 95.8337H84.3333C83.3167 95.8337 82.3416 95.4298 81.6228 94.7109C80.9039 93.992 80.5 93.017 80.5 92.0003C80.5 90.9837 80.9039 90.0086 81.6228 89.2897C82.3416 88.5709 83.3167 88.167 84.3333 88.167H107.333C108.35 88.167 109.325 88.5709 110.044 89.2897C110.763 90.0086 111.167 90.9837 111.167 92.0003C111.167 93.017 110.763 93.992 110.044 94.7109C109.325 95.4298 108.35 95.8337 107.333 95.8337Z" fill="#463C4B"/>
<path d="M84.3333 95.8337C86.4504 95.8337 88.1667 94.1174 88.1667 92.0003C88.1667 89.8832 86.4504 88.167 84.3333 88.167C82.2162 88.167 80.5 89.8832 80.5 92.0003C80.5 94.1174 82.2162 95.8337 84.3333 95.8337Z" fill="#D7E6F0"/>
<path d="M107.333 95.8337C109.45 95.8337 111.167 94.1174 111.167 92.0003C111.167 89.8832 109.45 88.167 107.333 88.167C105.216 88.167 103.5 89.8832 103.5 92.0003C103.5 94.1174 105.216 95.8337 107.333 95.8337Z" fill="#D7E6F0"/>
<path d="M17.7028 57.5C16.9911 57.4999 16.2934 57.698 15.6879 58.0721C15.0823 58.4462 14.5929 58.9814 14.2744 59.6179L9.18325 69.7978C8.18627 71.794 7.66708 73.9946 7.66669 76.2258V80.5H57.5L44.4427 60.9141C43.7425 59.8637 42.7938 59.0025 41.6808 58.407C40.5678 57.8114 39.325 57.4998 38.0626 57.5H17.7028Z" fill="#555A6E"/>
<path d="M15.3333 115C21.6846 115 26.8333 109.851 26.8333 103.5C26.8333 97.1487 21.6846 92 15.3333 92C8.98204 92 3.83331 97.1487 3.83331 103.5C3.83331 109.851 8.98204 115 15.3333 115Z" fill="#555A6E"/>
<path d="M15.3333 107.334C17.4504 107.334 19.1667 105.617 19.1667 103.5C19.1667 101.383 17.4504 99.667 15.3333 99.667C13.2162 99.667 11.5 101.383 11.5 103.5C11.5 105.617 13.2162 107.334 15.3333 107.334Z" fill="#D7E6F0"/>
<path d="M49.8333 115C56.1846 115 61.3333 109.851 61.3333 103.5C61.3333 97.1487 56.1846 92 49.8333 92C43.482 92 38.3333 97.1487 38.3333 103.5C38.3333 109.851 43.482 115 49.8333 115Z" fill="#555A6E"/>
<path d="M49.8333 107.334C51.9504 107.334 53.6667 105.617 53.6667 103.5C53.6667 101.383 51.9504 99.667 49.8333 99.667C47.7162 99.667 46 101.383 46 103.5C46 105.617 47.7162 107.334 49.8333 107.334Z" fill="#D7E6F0"/>
<path d="M36.4167 88.1663H32.5834C32.075 88.1663 31.5875 87.9644 31.2281 87.605C30.8686 87.2455 30.6667 86.758 30.6667 86.2497C30.6667 85.7413 30.8686 85.2538 31.2281 84.8944C31.5875 84.5349 32.075 84.333 32.5834 84.333H36.4167C36.925 84.333 37.4125 84.5349 37.772 84.8944C38.1314 85.2538 38.3334 85.7413 38.3334 86.2497C38.3334 86.758 38.1314 87.2455 37.772 87.605C37.4125 87.9644 36.925 88.1663 36.4167 88.1663Z" fill="#7194D3"/>
<path d="M13.4167 88.1663H9.58335C9.07502 88.1663 8.58751 87.9644 8.22807 87.605C7.86862 87.2455 7.66669 86.758 7.66669 86.2497C7.66669 85.7413 7.86862 85.2538 8.22807 84.8944C8.58751 84.5349 9.07502 84.333 9.58335 84.333H13.4167C13.925 84.333 14.4125 84.5349 14.772 84.8944C15.1314 85.2538 15.3334 85.7413 15.3334 86.2497C15.3334 86.758 15.1314 87.2455 14.772 87.605C14.4125 87.9644 13.925 88.1663 13.4167 88.1663Z" fill="#7194D3"/>
<path d="M5.75 57.5C5.24167 57.5 4.75416 57.7019 4.39471 58.0614C4.03527 58.4208 3.83333 58.9083 3.83333 59.4167C3.83333 59.925 4.03527 60.4125 4.39471 60.772C4.75416 61.1314 5.24167 61.3333 5.75 61.3333L1.51656 69.7978C0.519584 71.794 0.000393449 73.9946 0 76.2258V80.5H7.66667V76.2258C7.66706 73.9946 8.18625 71.794 9.18323 69.7978L14.2744 59.6179C14.5929 58.9814 15.0823 58.4462 15.6878 58.0721C16.2934 57.698 16.9911 57.4999 17.7028 57.5H5.75Z" fill="#395BA6"/>
<path d="M34.5 46C47.2025 46 57.5 35.7025 57.5 23C57.5 10.2975 47.2025 0 34.5 0C21.7975 0 11.5 10.2975 11.5 23C11.5 35.7025 21.7975 46 34.5 46Z" fill="#F06423"/>
<path d="M13.4167 24.9167C12.9083 24.9167 12.4208 24.7147 12.0614 24.3553C11.7019 23.9958 11.5 23.5083 11.5 23C11.507 16.9022 13.9324 11.0561 18.2442 6.74425C22.5561 2.43242 28.4022 0.00697513 34.5 0C35.0083 0 35.4958 0.201934 35.8553 0.561379C36.2147 0.920823 36.4167 1.40834 36.4167 1.91667C36.4167 2.425 36.2147 2.91251 35.8553 3.27195C35.4958 3.6314 35.0083 3.83333 34.5 3.83333C29.4184 3.83904 24.5466 5.86021 20.9534 9.45342C17.3602 13.0466 15.339 17.9184 15.3333 23C15.3333 23.5083 15.1314 23.9958 14.772 24.3553C14.4125 24.7147 13.925 24.9167 13.4167 24.9167Z" fill="#FAA019"/>
<path d="M34.5 42.1663C45.0854 42.1663 53.6666 33.5851 53.6666 22.9997C53.6666 12.4142 45.0854 3.83301 34.5 3.83301C23.9145 3.83301 15.3333 12.4142 15.3333 22.9997C15.3333 33.5851 23.9145 42.1663 34.5 42.1663Z" fill="#D7E6F0"/>
<path d="M38.3334 30.667H30.6667C29.1417 30.667 27.6792 30.0612 26.6008 28.9829C25.5225 27.9045 24.9167 26.442 24.9167 24.917V13.417C24.9167 11.892 25.5225 10.4295 26.6008 9.35113C27.6792 8.27279 29.1417 7.66699 30.6667 7.66699H38.3334C39.8583 7.66699 41.3209 8.27279 42.3992 9.35113C43.4776 10.4295 44.0834 11.892 44.0834 13.417V24.917C44.0834 26.442 43.4776 27.9045 42.3992 28.9829C41.3209 30.0612 39.8583 30.667 38.3334 30.667Z" fill="#FAB991"/>
<path d="M38.3334 26.8337H30.6667C30.6667 26.3253 30.8686 25.8378 31.2281 25.4784C31.5875 25.1189 32.075 24.917 32.5834 24.917H36.4167C36.925 24.917 37.4125 25.1189 37.772 25.4784C38.1314 25.8378 38.3334 26.3253 38.3334 26.8337Z" fill="#463C4B"/>
<path d="M30.6667 30.667H38.3334V34.5003H30.6667V30.667Z" fill="#F0915A"/>
<path d="M26.8333 34.5C24.6547 34.497 22.5204 35.1153 20.6808 36.2825C22.4693 38.1434 24.6153 39.624 26.9899 40.6353C29.3645 41.6466 31.919 42.1679 34.5 42.1679C37.081 42.1679 39.6355 41.6466 42.0101 40.6353C44.3848 39.624 46.5307 38.1434 48.3192 36.2825C46.4796 35.1153 44.3453 34.497 42.1667 34.5H26.8333Z" fill="#FAA019"/>
<path d="M38.3334 7.66699H30.6667C29.1417 7.66699 27.6792 8.27279 26.6008 9.35113C25.5225 10.4295 24.9167 11.892 24.9167 13.417V19.167C25.425 19.167 25.9125 18.9651 26.272 18.6056C26.6314 18.2462 26.8334 17.7587 26.8334 17.2503V15.3337C26.8334 14.8253 27.0353 14.3378 27.3947 13.9784C27.7542 13.6189 28.2417 13.417 28.75 13.417H40.25C40.7584 13.417 41.2459 13.6189 41.6053 13.9784C41.9648 14.3378 42.1667 14.8253 42.1667 15.3337V17.2503C42.1667 17.7587 42.3686 18.2462 42.7281 18.6056C43.0875 18.9651 43.575 19.167 44.0834 19.167V13.417C44.0834 11.892 43.4776 10.4295 42.3992 9.35113C41.3209 8.27279 39.8583 7.66699 38.3334 7.66699Z" fill="#463C4B"/>
<path d="M44.0833 23V17.25C44.5916 17.25 45.0792 17.4519 45.4386 17.8114C45.798 18.1708 46 18.6583 46 19.1667V21.0833C46 21.5917 45.798 22.0792 45.4386 22.4386C45.0792 22.7981 44.5916 23 44.0833 23Z" fill="#F0915A"/>
<path d="M24.9167 23V17.25C24.4083 17.25 23.9208 17.4519 23.5614 17.8114C23.2019 18.1708 23 18.6583 23 19.1667V21.0833C23 21.5917 23.2019 22.0792 23.5614 22.4386C23.9208 22.7981 24.4083 23 24.9167 23Z" fill="#F0915A"/>
<path d="M80.5 46C93.2025 46 103.5 35.7025 103.5 23C103.5 10.2975 93.2025 0 80.5 0C67.7975 0 57.5 10.2975 57.5 23C57.5 35.7025 67.7975 46 80.5 46Z" fill="#23AAE6"/>
<path d="M59.4167 24.9167C58.9083 24.9167 58.4208 24.7147 58.0614 24.3553C57.7019 23.9958 57.5 23.5083 57.5 23C57.507 16.9022 59.9324 11.0561 64.2442 6.74425C68.5561 2.43242 74.4022 0.00697513 80.5 0C81.0083 0 81.4958 0.201934 81.8553 0.561379C82.2147 0.920823 82.4167 1.40834 82.4167 1.91667C82.4167 2.425 82.2147 2.91251 81.8553 3.27195C81.4958 3.6314 81.0083 3.83333 80.5 3.83333C75.4184 3.83904 70.5466 5.86021 66.9534 9.45342C63.3602 13.0466 61.339 17.9184 61.3333 23C61.3333 23.5083 61.1314 23.9958 60.772 24.3553C60.4125 24.7147 59.925 24.9167 59.4167 24.9167Z" fill="#5AD7FF"/>
<path d="M80.5 42.1663C91.0854 42.1663 99.6666 33.5851 99.6666 22.9997C99.6666 12.4142 91.0854 3.83301 80.5 3.83301C69.9145 3.83301 61.3333 12.4142 61.3333 22.9997C61.3333 33.5851 69.9145 42.1663 80.5 42.1663Z" fill="#D7E6F0"/>
<path d="M88.1667 32.5833H72.8333C71.8167 32.5833 70.8416 32.1795 70.1228 31.4606C69.4039 30.7417 69 29.7667 69 28.75V17.25H92V28.75C92 29.7667 91.5961 30.7417 90.8772 31.4606C90.1584 32.1795 89.1833 32.5833 88.1667 32.5833Z" fill="#463C4B"/>
<path d="M84.3334 30.667H76.6667C75.1417 30.667 73.6792 30.0612 72.6008 28.9829C71.5225 27.9045 70.9167 26.442 70.9167 24.917V13.417C70.9167 11.892 71.5225 10.4295 72.6008 9.35113C73.6792 8.27279 75.1417 7.66699 76.6667 7.66699H84.3334C85.8583 7.66699 87.3209 8.27279 88.3992 9.35113C89.4776 10.4295 90.0834 11.892 90.0834 13.417V24.917C90.0834 26.442 89.4776 27.9045 88.3992 28.9829C87.3209 30.0612 85.8583 30.667 84.3334 30.667Z" fill="#FAB991"/>
<path d="M76.6667 30.667H84.3334V34.5003H76.6667V30.667Z" fill="#F0915A"/>
<path d="M72.8333 34.5C70.693 34.4963 68.6137 35.2127 66.93 36.5341C68.7104 38.319 70.8255 39.7351 73.154 40.7014C75.4826 41.6676 77.9789 42.165 80.5 42.165C83.0211 42.165 85.5174 41.6676 87.846 40.7014C90.1745 39.7351 92.2896 38.319 94.07 36.5341C92.3863 35.2127 90.307 34.4963 88.1667 34.5H72.8333Z" fill="#5AD7FF"/>
<path d="M84.3333 13.417H86.25C87.2667 13.417 88.2417 13.8209 88.9606 14.5398C89.6795 15.2586 90.0833 16.2337 90.0833 17.2503H92V15.3337C92 13.3003 91.1923 11.3503 89.7545 9.91251C88.3167 8.47473 86.3667 7.66699 84.3333 7.66699H76.6667C74.6333 7.66699 72.6833 8.47473 71.2455 9.91251C69.8077 11.3503 69 13.3003 69 15.3337V19.167H78.5833C80.1083 19.167 81.5709 18.5612 82.6492 17.4829C83.7275 16.4045 84.3333 14.942 84.3333 13.417Z" fill="#463C4B"/>
<path d="M57.5 69C70.2025 69 80.5 58.7025 80.5 46C80.5 33.2975 70.2025 23 57.5 23C44.7975 23 34.5 33.2975 34.5 46C34.5 58.7025 44.7975 69 57.5 69Z" fill="#5FAA46"/>
<path d="M36.4167 47.9167C35.9083 47.9167 35.4208 47.7147 35.0614 47.3553C34.7019 46.9958 34.5 46.5083 34.5 46C34.507 39.9022 36.9324 34.0561 41.2442 29.7442C45.5561 25.4324 51.4022 23.007 57.5 23C58.0083 23 58.4958 23.2019 58.8553 23.5614C59.2147 23.9208 59.4167 24.4083 59.4167 24.9167C59.4167 25.425 59.2147 25.9125 58.8553 26.272C58.4958 26.6314 58.0083 26.8333 57.5 26.8333C52.4184 26.839 47.5466 28.8602 43.9534 32.4534C40.3602 36.0466 38.339 40.9184 38.3333 46C38.3333 46.5083 38.1314 46.9958 37.772 47.3553C37.4125 47.7147 36.925 47.9167 36.4167 47.9167Z" fill="#91C83C"/>
<path d="M57.5 65.1663C68.0854 65.1663 76.6666 56.5851 76.6666 45.9997C76.6666 35.4142 68.0854 26.833 57.5 26.833C46.9145 26.833 38.3333 35.4142 38.3333 45.9997C38.3333 56.5851 46.9145 65.1663 57.5 65.1663Z" fill="#D7E6F0"/>
<path d="M61.3334 53.667H53.6667C52.1417 53.667 50.6792 53.0612 49.6008 51.9829C48.5225 50.9045 47.9167 49.442 47.9167 47.917V36.417C47.9167 34.892 48.5225 33.4295 49.6008 32.3511C50.6792 31.2728 52.1417 30.667 53.6667 30.667H61.3334C62.8583 30.667 64.3209 31.2728 65.3992 32.3511C66.4776 33.4295 67.0834 34.892 67.0834 36.417V47.917C67.0834 49.442 66.4776 50.9045 65.3992 51.9829C64.3209 53.0612 62.8583 53.667 61.3334 53.667Z" fill="#FAB991"/>
<path d="M53.6667 53.667H61.3334V57.5003H53.6667V53.667Z" fill="#F0915A"/>
<path d="M61.3333 57.5H53.6667C52.2182 57.4998 50.7993 57.91 49.5743 58.6829C48.3494 59.4559 47.3684 60.5601 46.7451 61.8676C49.9198 64.0174 53.6659 65.1664 57.5 65.1664C61.3341 65.1664 65.0802 64.0174 68.2549 61.8676C67.6316 60.5601 66.6507 59.4559 65.4257 58.6829C64.2007 57.91 62.7818 57.4998 61.3333 57.5Z" fill="#91C83C"/>
<path d="M61.3334 30.667H53.6667C52.1417 30.667 50.6792 31.2728 49.6008 32.3511C48.5225 33.4295 47.9167 34.892 47.9167 36.417V42.167C48.425 42.167 48.9125 41.9651 49.272 41.6056C49.6314 41.2462 49.8334 40.7587 49.8334 40.2503V38.3337C49.8334 37.8253 50.0353 37.3378 50.3947 36.9784C50.7542 36.6189 51.2417 36.417 51.75 36.417H63.25C63.7584 36.417 64.2459 36.6189 64.6053 36.9784C64.9648 37.3378 65.1667 37.8253 65.1667 38.3337V40.2503C65.1667 40.7587 65.3686 41.2462 65.7281 41.6056C66.0875 41.9651 66.575 42.167 67.0834 42.167V36.417C67.0834 34.892 66.4776 33.4295 65.3992 32.3511C64.3209 31.2728 62.8583 30.667 61.3334 30.667Z" fill="#463C4B"/>
<path d="M67.0833 46V40.25C67.5916 40.25 68.0792 40.4519 68.4386 40.8114C68.798 41.1708 69 41.6583 69 42.1667V44.0833C69 44.5917 68.798 45.0792 68.4386 45.4386C68.0792 45.7981 67.5916 46 67.0833 46Z" fill="#F0915A"/>
<path d="M47.9167 46V40.25C47.4083 40.25 46.9208 40.4519 46.5614 40.8114C46.2019 41.1708 46 41.6583 46 42.1667V44.0833C46 44.5917 46.2019 45.0792 46.5614 45.4386C46.9208 45.7981 47.4083 46 47.9167 46Z" fill="#F0915A"/>
<path d="M61.3334 30.667H53.6667C52.1417 30.667 50.6792 31.2728 49.6008 32.3511C48.5225 33.4295 47.9167 34.892 47.9167 36.417V40.2503H67.0834V36.417C67.0834 34.892 66.4776 33.4295 65.3992 32.3511C64.3209 31.2728 62.8583 30.667 61.3334 30.667Z" fill="#5FAA46"/>
<path d="M63.25 36.417H51.75C50.7334 36.417 49.7583 36.8209 49.0394 37.5398C48.3206 38.2586 47.9167 39.2337 47.9167 40.2503H67.0834C67.0834 39.2337 66.6795 38.2586 65.9606 37.5398C65.2417 36.8209 64.2667 36.417 63.25 36.417Z" fill="#91C83C"/>
</g>
<defs>
<clipPath id="clip0_1119_214">
<rect width="115" height="115" fill="white"/>
</clipPath>
</defs>
</svg>
